<?xml version="1.0" encoding="UTF-8"?>
<svg id="Capa_1" data-name="Capa 1" xmlns="http://www.w3.org/2000/svg" viewBox="0 0 1200 1200">
  <defs>
    <style>
      .cls-1 {
        fill: #0080ff;
        stroke-width: 0px;
      }
    </style>
  </defs>
  <polygon class="cls-1" points="917.68 916.58 600 1100 282.31 916.58 413.87 916.58 600 1024.05 786.13 916.58 917.68 916.58"/>
  <path class="cls-1" d="M521.94,745.15h131.54l100.39-57.95v1.19h213.21v56.93h65.78v-295.14l-510.92,294.98ZM865.74,622.61l101.35-58.51v58.51h-101.35Z"/>
  <polygon class="cls-1" points="828.49 368.85 416.81 606.54 355.09 499.63 231.66 713.44 231.64 713.44 167.13 750.7 167.13 349.92 167.15 349.9 232.94 387.88 232.91 387.9 232.91 579.7 355.09 368.09 440.88 516.69 762.71 330.88 828.49 368.85"/>
  <polygon class="cls-1" points="1033.01 388.4 323.61 797.97 1033.01 797.97 1033.01 850 1009.2 863.75 190.8 863.75 166.99 850 166.99 812.45 934.71 369.2 600 175.95 285.75 357.39 219.97 319.41 600 100 1033.01 350 1033.01 388.4"/>
</svg>